<?xml version="1.0" encoding="UTF-8" standalone="no"?>
<!DOCTYPE svg PUBLIC "-//W3C//DTD SVG 1.1//EN" "http://www.w3.org/Graphics/SVG/1.1/DTD/svg11.dtd">
<svg width="100%" height="100%" viewBox="0 0 128 128" version="1.1" xmlns="http://www.w3.org/2000/svg" xmlns:xlink="http://www.w3.org/1999/xlink" xml:space="preserve" xmlns:serif="http://www.serif.com/" style="fill-rule:evenodd;clip-rule:evenodd;stroke-linecap:round;stroke-linejoin:round;stroke-miterlimit:1.5;">
    <rect id="アートボード1" x="0" y="0" width="128" height="128" style="fill:none;"/>
    <g id="アートボード11" serif:id="アートボード1">
        <g transform="matrix(0.893258,0,0,1.4878,10.2177,-9.62444)">
            <path d="M105,48.25C105,42.593 97.35,38 87.928,38L33.072,38C23.65,38 16,42.593 16,48.25L16,68.75C16,74.407 23.65,79 33.072,79L87.928,79C97.35,79 105,74.407 105,68.75L105,48.25Z" style="fill:rgb(197,35,74);stroke:rgb(235,235,235);stroke-width:0.81px;"/>
        </g>
        <g transform="matrix(1,0,0,1,-3.74015,21.9121)">
            <circle cx="54" cy="31" r="14"/>
        </g>
        <g transform="matrix(1,0,0,1,24,21.9121)">
            <circle cx="54" cy="31" r="14"/>
        </g>
        <g transform="matrix(0.340336,0,0,0.340336,27.6464,38.1264)">
            <circle cx="54" cy="31" r="14" style="fill:rgb(235,235,235);"/>
        </g>
        <g transform="matrix(0.340336,0,0,0.340336,55.3866,38.1264)">
            <circle cx="54" cy="31" r="14" style="fill:rgb(235,235,235);"/>
        </g>
        <g transform="matrix(0.707065,-0.707149,0.707149,0.707065,-16.8027,23.813)">
            <path d="M15.5,28C18.813,28 21.733,18.132 23.433,22.874C24.423,25.637 25,28.945 25,32.5C25,42.159 20.743,50 15.5,50C10.257,50 6,42.159 6,32.5C6,28.764 6.637,25.3 7.721,22.457C9.44,17.949 12.285,28 15.5,28Z" style="fill:rgb(197,35,74);stroke:rgb(235,235,235);stroke-width:1px;"/>
        </g>
        <g transform="matrix(-0.707065,-0.707149,-0.707149,0.707065,144.803,23.813)">
            <path d="M15.5,28C18.813,28 21.733,18.132 23.433,22.874C24.423,25.637 25,28.945 25,32.5C25,42.159 20.743,50 15.5,50C10.257,50 6,42.159 6,32.5C6,28.764 6.637,25.3 7.721,22.457C9.44,17.949 12.285,28 15.5,28Z" style="fill:rgb(197,35,74);stroke:rgb(235,235,235);stroke-width:1px;"/>
        </g>
        <g transform="matrix(1,0,0,1,-3,-1)">
            <path d="M35,59.89C35,58.847 34.153,58 33.11,58C32.067,58 31.22,58.847 31.22,59.89L31.22,86.11C31.22,87.153 32.067,88 33.11,88C34.153,88 35,87.153 35,86.11L35,59.89Z" style="fill:rgb(235,235,235);"/>
        </g>
        <g transform="matrix(1.72917,0,0,0.833333,-40.3547,20.5)">
            <g transform="matrix(0.75,0,0,1,12.5,0)">
                <rect x="50" y="75" width="4" height="48" style="fill:rgb(255,62,181);"/>
            </g>
            <g transform="matrix(0.75,0,0,1,15.5,0)">
                <rect x="50" y="75" width="4" height="48" style="fill:rgb(255,114,118);"/>
            </g>
            <g transform="matrix(0.75,0,0,1,18.5,0)">
                <rect x="50" y="75" width="4" height="48" style="fill:rgb(255,170,77);"/>
            </g>
            <g transform="matrix(0.75,0,0,1,21.5,0)">
                <rect x="50" y="75" width="4" height="48" style="fill:rgb(255,233,0);"/>
            </g>
            <g transform="matrix(0.75,0,0,1,24.5,0)">
                <rect x="50" y="75" width="4" height="48" style="fill:rgb(68,214,44);"/>
            </g>
            <g transform="matrix(0.75,0,0,1,27.5,0)">
                <rect x="50" y="75" width="4" height="48" style="fill:rgb(0,154,206);"/>
            </g>
            <g transform="matrix(0.75,0,0,1,30.5,0)">
                <rect x="50" y="75" width="4" height="48" style="fill:rgb(153,122,219);"/>
            </g>
        </g>
    </g>
</svg>
